<?xml version="1.0" standalone="no"?>
<!DOCTYPE svg PUBLIC "-//W3C//DTD SVG 20010904//EN"
 "http://www.w3.org/TR/2001/REC-SVG-20010904/DTD/svg10.dtd">
<svg version="1.0" xmlns="http://www.w3.org/2000/svg"
 width="1280.000000pt" height="850.000000pt" viewBox="0 0 1280.000000 850.000000"
 preserveAspectRatio="xMidYMid meet">
<metadata>
Created by potrace 1.15, written by Peter Selinger 2001-2017
</metadata>
<g transform="translate(0.000000,850.000000) scale(0.100000,-0.100000)"
fill="#000000" stroke="none">
<path d="M5213 7779 c-18 -5 -46 -26 -62 -47 -17 -20 -47 -57 -66 -81 -81
-100 -138 -230 -148 -341 -10 -108 31 -355 94 -566 12 -39 11 -42 -28 -100
-49 -71 -119 -209 -144 -283 -49 -142 -59 -323 -26 -486 13 -66 80 -259 97
-280 4 -5 25 -42 45 -82 26 -50 79 -120 175 -227 129 -145 138 -158 144 -205
12 -87 -19 -175 -162 -471 -163 -335 -202 -469 -203 -686 -1 -199 9 -240 105
-429 45 -88 110 -220 146 -293 72 -152 69 -131 57 -417 -5 -99 -10 -236 -12
-305 -2 -69 -9 -183 -14 -255 -6 -71 -10 -216 -10 -320 1 -105 -2 -218 -5
-250 -6 -55 -12 -82 -44 -210 -15 -59 -58 -173 -89 -233 -28 -54 -55 -83 -182
-186 -99 -81 -167 -158 -175 -197 -21 -107 100 -223 260 -249 32 -5 255 -12
494 -15 456 -5 585 -8 1150 -26 190 -6 750 -12 1245 -14 l900 -3 116 52 c114
50 118 53 188 134 39 46 71 88 71 94 0 5 27 64 60 129 33 66 67 146 76 177 8
31 30 107 48 167 60 201 102 411 122 615 12 124 15 216 10 370 -7 225 -8 235
-58 430 -19 74 -43 169 -53 210 -35 145 -147 484 -187 565 -49 99 -157 288
-214 375 -46 71 -99 131 -208 237 -80 78 -162 154 -183 167 -192 128 -294 191
-323 202 -19 7 -66 25 -105 39 -38 15 -119 42 -180 62 -149 47 -175 56 -289
97 -55 20 -109 36 -120 36 -39 0 -145 81 -192 146 -49 68 -216 232 -275 270
-20 12 -55 44 -78 71 -42 48 -42 48 -37 109 9 91 33 162 75 224 55 79 69 111
85 187 61 292 57 517 -9 658 -21 44 -25 67 -25 146 0 89 2 99 36 164 40 79
142 393 175 542 36 157 26 322 -23 420 -25 50 -187 133 -258 133 -61 0 -156
-57 -264 -161 -56 -52 -126 -118 -156 -145 -30 -27 -68 -63 -85 -80 -16 -17
-49 -47 -72 -66 -23 -20 -65 -62 -93 -94 -88 -101 -101 -106 -314 -110 -205
-5 -190 -10 -238 76 -197 354 -336 533 -465 599 -46 23 -53 24 -100 10z"/>
</g>
</svg>
